# xmcd CD database file
#
# Track frame offsets:
#	150
#	23702
#	45227
#	59342
#	78142
#	102700
#	123832
#	144005
#	163060
#	186812
#	197067
#	214800
#	234042
#	252530
#
# Disc length: 3593 seconds
#
# Revision: 1
# Processed by: cddbd v1.5.2PL0 Copyright (c) Steve Scherf et al.
# Submitted via: CDex 1.51
#
DISCID=b30e070e
DTITLE=RICHARD ELLIOT - BALLADS
DYEAR=1900
DGENRE=Jazz
TTITLE0=HERE AND NOW
TTITLE1=ADIA
TTITLE2=SONG FOR HER
TTITLE3=WHWN A MAN LOVES A WOMAN
TTITLE4=ALL NIGHT
TTITLE5=SWEET DREAM
TTITLE6=I'LL MAKE LOVE TO YOU
TTITLE7=JUDY'S SONG
TTITLE8=BRIDGE OVER TROUBLED WATER
TTITLE9=MIKAYLA'S SMILE
TTITLE10=BECAUSE I LOVE YOU
TTITLE11=IMAGINE
TTITLE12=JUST ME AND YOU
TTITLE13=OVER THE RAINBOW
EXTD=
EXTT0=
EXTT1=
EXTT2=
EXTT3=
EXTT4=
EXTT5=
EXTT6=
EXTT7=
EXTT8=
EXTT9=
EXTT10=
EXTT11=
EXTT12=
EXTT13=
PLAYORDER=
